# xmcd
#
# Track frame offsets:
#	150
#	16741
#	32934
#	48404
#	65980
#	80206
#	97688
#	120819
#	136158
#	150809
#	167327
#	184688
#	197676
#	212418
#	229138
#	244565
#	261185
#	278111
#	293444
#	308846
#
# Disc length: 4374 seconds
#
# Revision: 1
# Processed by: cddbd v1.5.2PL0 Copyright (c) Steve Scherf et al.
# Submitted via: audiograbber 1.83.01
#
DISCID=fc111414
DTITLE=Jason Aldean - Greatest Songs
DYEAR=2018
DGENRE=Country
TTITLE0=Burnin' It Down
TTITLE1=Why
TTITLE2=Big Green Tractor
TTITLE3=Night Train
TTITLE4=Take A Little Ride
TTITLE5=Tonight Looks Good On You
TTITLE6=Hicktown
TTITLE7=Tattoos On This Town
TTITLE8=You Make It Easy
TTITLE9=Fly Over States
TTITLE10=Dirt Road Anthem
TTITLE11=When She Says Baby
TTITLE12=Lights Come On
TTITLE13=She Country
TTITLE14=Amarillo Sky
TTITLE15=A Little More Summertime
TTITLE16=Gonna Know We Were Here
TTITLE17=Drowns the Whiskey (Feat. Miranda Lambert)
TTITLE18=Any Ol' Barstool
TTITLE19=Don't You Wanna Stay (Feat. Kelly Clarkson)
EXTD=
EXTT0=
EXTT1=
EXTT2=
EXTT3=
EXTT4=
EXTT5=
EXTT6=
EXTT7=
EXTT8=
EXTT9=
EXTT10=
EXTT11=
EXTT12=
EXTT13=
EXTT14=
EXTT15=
EXTT16=
EXTT17=
EXTT18=
EXTT19=
PLAYORDER=
